<mxfile host="app.diagrams.net" agent="Mozilla/5.0 (Windows NT 10.0; Win64; x64) AppleWebKit/537.36 (KHTML, like Gecko) Chrome/133.0.0.0 Safari/537.36" version="26.1.0">
  <diagram name="Page-1" id="-yu78I1sRUlMoiZo3140">
    <mxGraphModel dx="1290" dy="522" grid="1" gridSize="10" guides="1" tooltips="1" connect="1" arrows="1" fold="1" page="1" pageScale="1" pageWidth="827" pageHeight="1169" math="0" shadow="0">
      <root>
        <mxCell id="0" />
        <mxCell id="1" parent="0" />
        <mxCell id="TWy4Sa6htujXtJZXjGvq-5" value="APP" style="shape=umlLifeline;perimeter=lifelinePerimeter;whiteSpace=wrap;html=1;container=1;dropTarget=0;collapsible=0;recursiveResize=0;outlineConnect=0;portConstraint=eastwest;newEdgeStyle={&quot;curved&quot;:0,&quot;rounded&quot;:0};" parent="1" vertex="1">
          <mxGeometry x="340" y="80" width="100" height="880" as="geometry" />
        </mxCell>
        <mxCell id="TWy4Sa6htujXtJZXjGvq-6" value="BDD" style="shape=umlLifeline;perimeter=lifelinePerimeter;whiteSpace=wrap;html=1;container=1;dropTarget=0;collapsible=0;recursiveResize=0;outlineConnect=0;portConstraint=eastwest;newEdgeStyle={&quot;curved&quot;:0,&quot;rounded&quot;:0};" parent="1" vertex="1">
          <mxGeometry x="680" y="80" width="100" height="880" as="geometry" />
        </mxCell>
        <mxCell id="TWy4Sa6htujXtJZXjGvq-11" value="" style="shape=umlLifeline;perimeter=lifelinePerimeter;whiteSpace=wrap;html=1;container=1;dropTarget=0;collapsible=0;recursiveResize=0;outlineConnect=0;portConstraint=eastwest;newEdgeStyle={&quot;curved&quot;:0,&quot;rounded&quot;:0};participant=umlActor;" parent="1" vertex="1">
          <mxGeometry x="70" y="80" width="20" height="880" as="geometry" />
        </mxCell>
        <mxCell id="TWy4Sa6htujXtJZXjGvq-12" value="Connection request" style="html=1;verticalAlign=bottom;endArrow=block;curved=0;rounded=0;" parent="1" source="TWy4Sa6htujXtJZXjGvq-11" target="TWy4Sa6htujXtJZXjGvq-5" edge="1">
          <mxGeometry width="80" relative="1" as="geometry">
            <mxPoint x="350" y="200" as="sourcePoint" />
            <mxPoint x="430" y="200" as="targetPoint" />
            <Array as="points">
              <mxPoint x="230" y="150" />
            </Array>
          </mxGeometry>
        </mxCell>
        <mxCell id="TWy4Sa6htujXtJZXjGvq-13" value="Return to login page" style="endArrow=open;endSize=12;dashed=1;html=1;rounded=0;" parent="1" edge="1">
          <mxGeometry width="160" relative="1" as="geometry">
            <mxPoint x="389.5" y="200" as="sourcePoint" />
            <mxPoint x="79.32352941176464" y="200" as="targetPoint" />
          </mxGeometry>
        </mxCell>
        <mxCell id="TWy4Sa6htujXtJZXjGvq-14" value="/login[email:j@gmail.com&lt;div&gt;password: xxxx]&lt;/div&gt;" style="html=1;verticalAlign=bottom;endArrow=block;curved=0;rounded=0;" parent="1" source="TWy4Sa6htujXtJZXjGvq-11" target="TWy4Sa6htujXtJZXjGvq-5" edge="1">
          <mxGeometry width="80" relative="1" as="geometry">
            <mxPoint x="89" y="280" as="sourcePoint" />
            <mxPoint x="400" y="280" as="targetPoint" />
            <Array as="points">
              <mxPoint x="240" y="280" />
            </Array>
          </mxGeometry>
        </mxCell>
        <mxCell id="TWy4Sa6htujXtJZXjGvq-15" value="search user email" style="html=1;verticalAlign=bottom;endArrow=block;curved=0;rounded=0;" parent="1" edge="1">
          <mxGeometry width="80" relative="1" as="geometry">
            <mxPoint x="389.32352941176464" y="312" as="sourcePoint" />
            <mxPoint x="729.5" y="312" as="targetPoint" />
            <Array as="points" />
          </mxGeometry>
        </mxCell>
        <mxCell id="TWy4Sa6htujXtJZXjGvq-16" value="ALT" style="shape=umlFrame;whiteSpace=wrap;html=1;pointerEvents=0;" parent="1" vertex="1">
          <mxGeometry x="10" y="330" width="790" height="550" as="geometry" />
        </mxCell>
        <mxCell id="TWy4Sa6htujXtJZXjGvq-17" value="[if email not exist]" style="text;html=1;align=center;verticalAlign=middle;resizable=0;points=[];autosize=1;strokeColor=none;fillColor=none;" parent="1" vertex="1">
          <mxGeometry x="70" y="329" width="120" height="30" as="geometry" />
        </mxCell>
        <mxCell id="TWy4Sa6htujXtJZXjGvq-18" value="email not exist" style="endArrow=open;endSize=12;dashed=1;html=1;rounded=0;" parent="1" edge="1">
          <mxGeometry width="160" relative="1" as="geometry">
            <mxPoint x="389.5" y="429" as="sourcePoint" />
            <mxPoint x="79.32352941176464" y="429" as="targetPoint" />
          </mxGeometry>
        </mxCell>
        <mxCell id="TWy4Sa6htujXtJZXjGvq-19" value="email not found" style="endArrow=open;endSize=12;dashed=1;html=1;rounded=0;" parent="1" edge="1">
          <mxGeometry width="160" relative="1" as="geometry">
            <mxPoint x="729.5" y="387" as="sourcePoint" />
            <mxPoint x="389.32352941176464" y="387" as="targetPoint" />
          </mxGeometry>
        </mxCell>
        <mxCell id="TWy4Sa6htujXtJZXjGvq-20" value="" style="endArrow=none;dashed=1;html=1;rounded=0;exitX=-0.002;exitY=0.421;exitDx=0;exitDy=0;exitPerimeter=0;entryX=0.998;entryY=0.441;entryDx=0;entryDy=0;entryPerimeter=0;" parent="1" edge="1">
          <mxGeometry width="50" height="50" relative="1" as="geometry">
            <mxPoint x="8.419999999999845" y="462.24" as="sourcePoint" />
            <mxPoint x="798.4200000000001" y="471.03999999999996" as="targetPoint" />
          </mxGeometry>
        </mxCell>
        <mxCell id="TWy4Sa6htujXtJZXjGvq-21" value="[if email exist]" style="text;html=1;align=center;verticalAlign=middle;resizable=0;points=[];autosize=1;strokeColor=none;fillColor=none;" parent="1" vertex="1">
          <mxGeometry x="70" y="460" width="100" height="30" as="geometry" />
        </mxCell>
        <mxCell id="TWy4Sa6htujXtJZXjGvq-22" value="email found" style="endArrow=open;endSize=12;dashed=1;html=1;rounded=0;" parent="1" edge="1">
          <mxGeometry width="160" relative="1" as="geometry">
            <mxPoint x="729.5" y="506" as="sourcePoint" />
            <mxPoint x="389.32352941176464" y="506" as="targetPoint" />
          </mxGeometry>
        </mxCell>
        <mxCell id="TWy4Sa6htujXtJZXjGvq-23" value="" style="html=1;points=[[0,0,0,0,5],[0,1,0,0,-5],[1,0,0,0,5],[1,1,0,0,-5]];perimeter=orthogonalPerimeter;outlineConnect=0;targetShapes=umlLifeline;portConstraint=eastwest;newEdgeStyle={&quot;curved&quot;:0,&quot;rounded&quot;:0};" parent="1" vertex="1">
          <mxGeometry x="386" y="546" width="10" height="40" as="geometry" />
        </mxCell>
        <mxCell id="TWy4Sa6htujXtJZXjGvq-24" value="check if the password is correct" style="html=1;align=left;spacingLeft=2;endArrow=block;rounded=0;edgeStyle=orthogonalEdgeStyle;curved=0;rounded=0;" parent="1" target="TWy4Sa6htujXtJZXjGvq-23" edge="1">
          <mxGeometry relative="1" as="geometry">
            <mxPoint x="391" y="526" as="sourcePoint" />
            <Array as="points">
              <mxPoint x="421" y="556" />
            </Array>
          </mxGeometry>
        </mxCell>
        <mxCell id="TWy4Sa6htujXtJZXjGvq-25" value="ALT" style="shape=umlFrame;whiteSpace=wrap;html=1;pointerEvents=0;" parent="1" vertex="1">
          <mxGeometry x="20" y="595" width="750" height="215" as="geometry" />
        </mxCell>
        <mxCell id="TWy4Sa6htujXtJZXjGvq-26" value="[if password not correct]" style="text;html=1;align=center;verticalAlign=middle;resizable=0;points=[];autosize=1;strokeColor=none;fillColor=none;" parent="1" vertex="1">
          <mxGeometry x="71" y="589" width="150" height="30" as="geometry" />
        </mxCell>
        <mxCell id="TWy4Sa6htujXtJZXjGvq-27" value="email&amp;nbsp; or password is not correct" style="endArrow=open;endSize=12;dashed=1;html=1;rounded=0;" parent="1" edge="1">
          <mxGeometry width="160" relative="1" as="geometry">
            <mxPoint x="389.5" y="657" as="sourcePoint" />
            <mxPoint x="79.32352941176464" y="657" as="targetPoint" />
          </mxGeometry>
        </mxCell>
        <mxCell id="TWy4Sa6htujXtJZXjGvq-28" value="" style="endArrow=none;dashed=1;html=1;rounded=0;exitX=0.005;exitY=0.357;exitDx=0;exitDy=0;exitPerimeter=0;entryX=1;entryY=0.349;entryDx=0;entryDy=0;entryPerimeter=0;" parent="1" edge="1">
          <mxGeometry width="50" height="50" relative="1" as="geometry">
            <mxPoint x="23.75" y="679.25" as="sourcePoint" />
            <mxPoint x="770" y="677.25" as="targetPoint" />
            <Array as="points">
              <mxPoint x="630" y="677" />
            </Array>
          </mxGeometry>
        </mxCell>
        <mxCell id="TWy4Sa6htujXtJZXjGvq-29" value="[if password correct]" style="text;html=1;align=center;verticalAlign=middle;resizable=0;points=[];autosize=1;strokeColor=none;fillColor=none;" parent="1" vertex="1">
          <mxGeometry x="71" y="673" width="130" height="30" as="geometry" />
        </mxCell>
        <mxCell id="TWy4Sa6htujXtJZXjGvq-30" value="" style="html=1;points=[[0,0,0,0,5],[0,1,0,0,-5],[1,0,0,0,5],[1,1,0,0,-5]];perimeter=orthogonalPerimeter;outlineConnect=0;targetShapes=umlLifeline;portConstraint=eastwest;newEdgeStyle={&quot;curved&quot;:0,&quot;rounded&quot;:0};" parent="1" vertex="1">
          <mxGeometry x="386" y="727" width="10" height="40" as="geometry" />
        </mxCell>
        <mxCell id="TWy4Sa6htujXtJZXjGvq-31" value="password is correct" style="html=1;align=left;spacingLeft=2;endArrow=block;rounded=0;edgeStyle=orthogonalEdgeStyle;curved=0;rounded=0;" parent="1" target="TWy4Sa6htujXtJZXjGvq-30" edge="1">
          <mxGeometry relative="1" as="geometry">
            <mxPoint x="391" y="707" as="sourcePoint" />
            <Array as="points">
              <mxPoint x="421" y="737" />
            </Array>
          </mxGeometry>
        </mxCell>
        <mxCell id="TWy4Sa6htujXtJZXjGvq-32" value="Welcome&amp;nbsp;" style="endArrow=open;endSize=12;dashed=1;html=1;rounded=0;" parent="1" edge="1">
          <mxGeometry width="160" relative="1" as="geometry">
            <mxPoint x="389.5" y="790" as="sourcePoint" />
            <mxPoint x="79.32352941176464" y="790" as="targetPoint" />
          </mxGeometry>
        </mxCell>
        <mxCell id="TWy4Sa6htujXtJZXjGvq-33" value="SEQUENCE DIAGRAM: CONNECT" style="text;html=1;align=center;verticalAlign=middle;whiteSpace=wrap;rounded=0;" parent="1" vertex="1">
          <mxGeometry x="240" y="11" width="270" height="43" as="geometry" />
        </mxCell>
      </root>
    </mxGraphModel>
  </diagram>
</mxfile>
